<?xml version="1.0" encoding="utf-8"?>
<!-- Generator: Adobe Illustrator 27.5.0, SVG Export Plug-In . SVG Version: 6.00 Build 0)  -->
<svg version="1.1" id="Layer_1" xmlns="http://www.w3.org/2000/svg" xmlns:xlink="http://www.w3.org/1999/xlink" x="0px" y="0px"
	 viewBox="0 0 2000 3000" style="enable-background:new 0 0 2000 3000;" xml:space="preserve">
<rect x="1.368" y="1997.729" style="opacity:0.42;fill:#29A9E1;" width="1997.263" height="1002.271"/>
<rect style="opacity:0.26;fill:#29A9E1;" width="2000" height="2000.413"/>
<g>
	<g>
		<path style="fill:#29A9E1;" d="M288.642,2406.522c0,0,53.723,4.884,63.491,48.839
			C352.133,2455.361,300.852,2474.897,288.642,2406.522z"/>
		<path style="fill:#29A9E1;" d="M318.272,2344.356c0,0,48.409,23.802,41.786,68.339
			C360.058,2412.695,305.182,2412.567,318.272,2344.356z"/>
		<path style="fill:#29A9E1;" d="M420.508,2406.522c0,0-53.723,4.884-63.491,48.839
			C357.017,2455.361,408.298,2474.897,420.508,2406.522z"/>
	</g>
	<g>
		<path style="fill:#29A9E1;" d="M288.642,2462.687c0,0,53.723,4.884,63.491,48.839
			C352.133,2511.526,300.852,2531.062,288.642,2462.687z"/>
		<path style="fill:#29A9E1;" d="M420.508,2462.687c0,0-53.723,4.884-63.491,48.839
			C357.017,2511.526,408.298,2531.062,420.508,2462.687z"/>
	</g>
	<g>
		<path style="fill:#29A9E1;" d="M288.642,2526.178c0,0,53.723,4.884,63.491,48.839
			C352.133,2575.017,300.852,2594.552,288.642,2526.178z"/>
		<path style="fill:#29A9E1;" d="M420.508,2526.178c0,0-53.723,4.884-63.491,48.839
			C357.017,2575.017,408.298,2594.552,420.508,2526.178z"/>
	</g>
	<g>
		<path style="fill:#29A9E1;" d="M288.642,2572.575c0,0,53.723,4.884,63.491,48.839
			C352.133,2621.414,300.852,2640.949,288.642,2572.575z"/>
		<path style="fill:#29A9E1;" d="M420.508,2572.575c0,0-53.723,4.884-63.491,48.839
			C357.017,2621.414,408.298,2640.949,420.508,2572.575z"/>
	</g>
	
		<rect x="351.522" y="2402.249" transform="matrix(-1 -1.224647e-16 1.224647e-16 -1 710.9814 5038.3145)" style="fill:#29A9E1;" width="7.936" height="233.816"/>
</g>
<g>
	<g>
		<path style="fill:#29A9E1;" d="M1741.169,1897.205c0,0,50.093,4.554,59.201,45.539
			C1800.37,1942.744,1752.553,1960.96,1741.169,1897.205z"/>
		<path style="fill:#29A9E1;" d="M1768.796,1839.239c0,0,45.139,22.193,38.963,63.722
			C1807.759,1902.961,1756.591,1902.842,1768.796,1839.239z"/>
		<path style="fill:#29A9E1;" d="M1864.124,1897.205c0,0-50.093,4.554-59.201,45.539
			C1804.923,1942.744,1852.74,1960.96,1864.124,1897.205z"/>
	</g>
	<g>
		<path style="fill:#29A9E1;" d="M1741.169,1949.575c0,0,50.093,4.554,59.201,45.539
			C1800.37,1995.114,1752.553,2013.33,1741.169,1949.575z"/>
		<path style="fill:#29A9E1;" d="M1864.124,1949.575c0,0-50.093,4.554-59.201,45.539
			C1804.923,1995.114,1852.74,2013.33,1864.124,1949.575z"/>
	</g>
	<g>
		<path style="fill:#29A9E1;" d="M1741.169,2008.776c0,0,50.093,4.554,59.201,45.539
			C1800.37,2054.315,1752.553,2072.531,1741.169,2008.776z"/>
		<path style="fill:#29A9E1;" d="M1864.124,2008.776c0,0-50.093,4.554-59.201,45.539
			C1804.923,2054.315,1852.74,2072.531,1864.124,2008.776z"/>
	</g>
	<g>
		<path style="fill:#29A9E1;" d="M1741.169,2052.038c0,0,50.093,4.554,59.201,45.539
			C1800.37,2097.577,1752.553,2115.793,1741.169,2052.038z"/>
		<path style="fill:#29A9E1;" d="M1864.124,2052.038c0,0-50.093,4.554-59.201,45.539
			C1804.923,2097.577,1852.74,2115.793,1864.124,2052.038z"/>
	</g>
	
		<rect x="1799.8" y="1893.22" transform="matrix(-1 -1.224647e-16 1.224647e-16 -1 3607.0005 4004.459)" style="fill:#29A9E1;" width="7.4" height="218.019"/>
</g>
<g>
	<g>
		<path style="fill:#29A9E1;" d="M1761.02,2416.154c0,0,63.539,5.776,75.091,57.763
			C1836.111,2473.917,1775.461,2497.021,1761.02,2416.154z"/>
		<path style="fill:#29A9E1;" d="M1796.063,2342.629c0,0,57.255,28.151,49.421,80.826
			C1845.484,2423.455,1780.582,2423.304,1796.063,2342.629z"/>
		<path style="fill:#29A9E1;" d="M1916.979,2416.154c0,0-63.539,5.776-75.091,57.763
			C1841.888,2473.917,1902.538,2497.021,1916.979,2416.154z"/>
	</g>
	<g>
		<path style="fill:#29A9E1;" d="M1761.02,2482.581c0,0,63.539,5.776,75.091,57.763
			C1836.111,2540.344,1775.461,2563.448,1761.02,2482.581z"/>
		<path style="fill:#29A9E1;" d="M1916.979,2482.581c0,0-63.539,5.776-75.091,57.763
			C1841.888,2540.344,1902.538,2563.448,1916.979,2482.581z"/>
	</g>
	<g>
		<path style="fill:#29A9E1;" d="M1761.02,2557.672c0,0,63.539,5.776,75.091,57.763
			C1836.111,2615.435,1775.461,2638.54,1761.02,2557.672z"/>
		<path style="fill:#29A9E1;" d="M1916.979,2557.672c0,0-63.539,5.776-75.091,57.763
			C1841.888,2615.435,1902.538,2638.54,1916.979,2557.672z"/>
	</g>
	<g>
		<path style="fill:#29A9E1;" d="M1761.02,2612.547c0,0,63.539,5.776,75.091,57.763
			C1836.111,2670.309,1775.461,2693.414,1761.02,2612.547z"/>
		<path style="fill:#29A9E1;" d="M1916.979,2612.547c0,0-63.539,5.776-75.091,57.763
			C1841.888,2670.309,1902.538,2693.414,1916.979,2612.547z"/>
	</g>
	
		<rect x="1835.389" y="2411.1" transform="matrix(-1 -1.224647e-16 1.224647e-16 -1 3680.165 5098.7378)" style="fill:#29A9E1;" width="9.386" height="276.539"/>
</g>
<g>
	<path style="fill:#FFFFFF;" d="M425.986,300.817h-23.721v-23.721c0-2.965-2.426-5.391-5.391-5.391
		c-2.965,0-5.391,2.426-5.391,5.391v23.721h-23.721c-2.965,0-5.391,2.426-5.391,5.391c0,2.965,2.426,5.391,5.391,5.391h23.721
		v23.721c0,2.965,2.426,5.391,5.391,5.391c2.965,0,5.391-2.426,5.391-5.391v-23.721h23.721c2.965,0,5.391-2.426,5.391-5.391
		C431.377,303.242,428.951,300.817,425.986,300.817z"/>
	<path style="fill:#FFFFFF;" d="M252.021,785.229H228.3v-23.721c0-2.965-2.426-5.391-5.391-5.391c-2.965,0-5.391,2.426-5.391,5.391
		v23.721h-23.721c-2.965,0-5.391,2.426-5.391,5.391c0,2.965,2.426,5.391,5.391,5.391h23.721v23.721c0,2.965,2.426,5.391,5.391,5.391
		c2.965,0,5.391-2.426,5.391-5.391v-23.721h23.721c2.965,0,5.391-2.426,5.391-5.391
		C257.412,787.655,254.986,785.229,252.021,785.229z"/>
	<path style="fill:#FFFFFF;" d="M1155.213,137.634h-17.791v-17.791c0-2.224-1.819-4.043-4.043-4.043
		c-2.224,0-4.043,1.819-4.043,4.043v17.791h-17.791c-2.224,0-4.043,1.819-4.043,4.043s1.82,4.043,4.043,4.043h17.791v17.79
		c0,2.224,1.819,4.043,4.043,4.043c2.224,0,4.043-1.819,4.043-4.043v-17.79h17.791c2.224,0,4.043-1.82,4.043-4.043
		S1157.437,137.634,1155.213,137.634z"/>
	<path style="fill:#FFFFFF;" d="M361.284,1091.443h-17.79v-17.791c0-2.224-1.819-4.043-4.043-4.043
		c-2.224,0-4.043,1.819-4.043,4.043v17.791h-17.79c-2.224,0-4.043,1.819-4.043,4.043c0,2.224,1.82,4.043,4.043,4.043h17.79v17.791
		c0,2.224,1.82,4.043,4.043,4.043c2.224,0,4.043-1.82,4.043-4.043v-17.791h17.79c2.224,0,4.043-1.819,4.043-4.043
		C365.327,1093.262,363.507,1091.443,361.284,1091.443z"/>
	<path style="fill:#FFFFFF;" d="M1809.082,1097.236h-17.79v-17.791c0-2.224-1.819-4.043-4.043-4.043
		c-2.224,0-4.043,1.819-4.043,4.043v17.791h-17.791c-2.224,0-4.043,1.819-4.043,4.043c0,2.224,1.819,4.043,4.043,4.043h17.791
		v17.791c0,2.224,1.819,4.043,4.043,4.043c2.224,0,4.043-1.819,4.043-4.043v-17.791h17.79c2.224,0,4.043-1.819,4.043-4.043
		C1813.125,1099.055,1811.306,1097.236,1809.082,1097.236z"/>
	<path style="fill:#FFFFFF;" d="M1359.172,1319.191h-17.791v-17.79c0-2.224-1.819-4.043-4.043-4.043
		c-2.224,0-4.043,1.819-4.043,4.043v17.79h-17.79c-2.224,0-4.043,1.82-4.043,4.043s1.819,4.043,4.043,4.043h17.79v17.791
		c0,2.224,1.82,4.043,4.043,4.043c2.224,0,4.043-1.819,4.043-4.043v-17.791h17.791c2.224,0,4.043-1.82,4.043-4.043
		S1361.396,1319.191,1359.172,1319.191z"/>
	<path style="fill:#FFFFFF;" d="M657.313,537.465h-17.791v-17.79c0-2.224-1.82-4.043-4.043-4.043c-2.224,0-4.043,1.82-4.043,4.043
		v17.79h-17.79c-2.224,0-4.043,1.82-4.043,4.043s1.82,4.043,4.043,4.043h17.79v17.791c0,2.224,1.82,4.043,4.043,4.043
		c2.224,0,4.043-1.819,4.043-4.043v-17.791h17.791c2.224,0,4.043-1.819,4.043-4.043S659.536,537.465,657.313,537.465z"/>
	<path style="fill:#FFFFFF;" d="M1460.946,359.589h-17.791v-17.79c0-2.224-1.819-4.043-4.043-4.043
		c-2.224,0-4.043,1.819-4.043,4.043v17.79h-17.791c-2.224,0-4.043,1.819-4.043,4.043c0,2.224,1.819,4.043,4.043,4.043h17.791v17.791
		c0,2.224,1.819,4.043,4.043,4.043c2.224,0,4.043-1.819,4.043-4.043v-17.791h17.791c2.224,0,4.043-1.819,4.043-4.043
		C1464.989,361.409,1463.17,359.589,1460.946,359.589z"/>
	<path style="fill:#FFFFFF;" d="M1803.083,263.608h-17.791v-17.79c0-2.224-1.819-4.043-4.043-4.043
		c-2.224,0-4.043,1.819-4.043,4.043v17.79h-17.791c-2.224,0-4.043,1.819-4.043,4.043c0,2.224,1.82,4.043,4.043,4.043h17.791v17.79
		c0,2.224,1.819,4.043,4.043,4.043c2.224,0,4.043-1.82,4.043-4.043v-17.79h17.791c2.224,0,4.043-1.82,4.043-4.043
		C1807.127,265.428,1805.307,263.608,1803.083,263.608z"/>
	<path style="fill:#FFFFFF;" d="M183.407,1373.386h-17.79v-17.791c0-2.224-1.82-4.043-4.043-4.043s-4.043,1.819-4.043,4.043v17.791
		h-17.79c-2.224,0-4.043,1.819-4.043,4.043c0,2.224,1.82,4.043,4.043,4.043h17.79v17.791c0,2.224,1.819,4.043,4.043,4.043
		s4.043-1.819,4.043-4.043v-17.791h17.79c2.224,0,4.043-1.819,4.043-4.043C187.451,1375.206,185.631,1373.386,183.407,1373.386z"/>
</g>
<g>
	<g>
		<path style="fill:#29A9E1;" d="M232.632,1965.947c0,0,63.539,5.776,75.091,57.763
			C307.723,2023.71,247.072,2046.815,232.632,1965.947z"/>
		<path style="fill:#29A9E1;" d="M267.675,1892.422c0,0,57.255,28.151,49.421,80.826
			C317.096,1973.248,252.193,1973.097,267.675,1892.422z"/>
		<path style="fill:#29A9E1;" d="M388.591,1965.947c0,0-63.539,5.776-75.091,57.763
			C313.499,2023.71,374.15,2046.815,388.591,1965.947z"/>
	</g>
	<g>
		<path style="fill:#29A9E1;" d="M232.632,2032.374c0,0,63.539,5.776,75.091,57.763
			C307.723,2090.137,247.072,2113.242,232.632,2032.374z"/>
		<path style="fill:#29A9E1;" d="M388.591,2032.374c0,0-63.539,5.776-75.091,57.763
			C313.499,2090.137,374.15,2113.242,388.591,2032.374z"/>
	</g>
	<g>
		<path style="fill:#29A9E1;" d="M232.632,2107.465c0,0,63.539,5.776,75.091,57.763
			C307.723,2165.228,247.072,2188.333,232.632,2107.465z"/>
		<path style="fill:#29A9E1;" d="M388.591,2107.465c0,0-63.539,5.776-75.091,57.763
			C313.499,2165.228,374.15,2188.333,388.591,2107.465z"/>
	</g>
	<g>
		<path style="fill:#29A9E1;" d="M232.632,2162.34c0,0,63.539,5.776,75.091,57.762
			C307.723,2220.102,247.072,2243.208,232.632,2162.34z"/>
		<path style="fill:#29A9E1;" d="M388.591,2162.34c0,0-63.539,5.776-75.091,57.762
			C313.499,2220.102,374.15,2243.208,388.591,2162.34z"/>
	</g>
	
		<rect x="307.001" y="1960.893" transform="matrix(-1 -1.224647e-16 1.224647e-16 -1 623.388 4198.3237)" style="fill:#29A9E1;" width="9.386" height="276.539"/>
</g>
<ellipse transform="matrix(0.9714 -0.2376 0.2376 0.9714 -574.0323 323.4385)" style="opacity:0.42;fill:#29A9E1;" cx="1054.602" cy="2542.796" rx="626.769" ry="247.092"/>
<g>
	<g>
		<path style="fill:#C0272D;" d="M1227.541,734.4c0,0,315.249,825.888,343.543,1029.973
			c28.295,204.085-44.463,320.042-105.094,357.149c-60.631,37.106-149.557-4.638-214.23-32.468
			c-64.673-27.83-141.473-51.021-181.894-23.191c-40.421,27.83-258.693,120.596-331.451,64.936
			c-72.758-55.659-133.389-88.128-181.894-64.936c-48.505,23.191-113.178,37.106-117.22,83.489c0,0,28.536,81.308,8.084,69.574
			c-64.673-37.106-137.431-92.766-194.02-88.128c0,0-84.884-9.277,113.178-324.68s238.483-547.319,254.651-640.084
			c16.168-92.766,115.88-370.065,307.202-450.188L1227.541,734.4z"/>
		<path style="opacity:0.39;fill:#9A1C21;" d="M1302.934,2102.306c12.688-1.628,26.854-3.065,39.566-7.083
			c11.718-3.704,23.321-10.063,34.138-15.621c14.962-7.688,28.562-20.39,40.498-32.779c3.237-3.361,6.178-7.037,8.932-10.919
			c7.59-10.699,15.511-21.585,21.791-33.445c27.991-52.859,33.548-116.251,33.228-176.698
			c-0.375-70.816-4.601-140.691-12.984-210.85c-7.45-62.354-20.194-123.639-38.89-182.836
			c-20.582-65.168-44.803-128.535-68.429-192.279c-10.739-29.54-21.095-59.352-30.142-89.609
			c-17.899-59.86-30.782-121.48-45.411-182.444c-4.927-20.533-10.132-40.979-15.734-61.271
			c-8.545-42.343-17.348-84.618-26.284-126.853c-3.717-17.568-11.932-32.895-22.61-45.65l6.937,0.43
			c0,0,315.249,825.888,343.543,1029.973c28.295,204.085-44.463,320.042-105.094,357.149
			c-50.916,31.161-121.782,6.716-181.486-18.399C1290.641,2103.325,1296.782,2103.096,1302.934,2102.306z"/>
		<path style="opacity:0.39;fill:#9A1C21;" d="M845.039,2028.5c47.002-63.074,89.373-131.087,125.788-202.796
			c37.396-73.638,66.679-151.161,94.469-230.104c29.071-82.583,55.791-166.355,77.769-251.805c1.347-5.238,2.69-10.483,4.027-15.732
			c2.202,16.411,4.313,32.839,6.304,49.289c4.231,37.865,7.847,75.814,10.91,113.828c11.369,141.109,10.972,283.693-2.673,424.585
			c-10.32,3.036-20.776,5.566-31.039,8.386c-24.5,6.734-44.038,26.927-57.333,50.59c-14.054,25.014-15.264,56.646-9.671,84.826
			c0.632,3.051,1.416,6,2.298,8.884c-46.655,29.042-237.224,108.263-316.371,69.182
			C783.97,2104.364,815.913,2067.585,845.039,2028.5z"/>
		<path style="opacity:0.39;fill:#9A1C21;" d="M425.707,1748.103c44.998-38.516,93.24-71.685,141.288-104.899
			c47.915-33.123,94.605-67.62,140.258-104.725c52.34-42.54,104.273-85.755,155.065-130.708
			c27.753-24.563,55.368-49.363,82.532-74.791c-7.1,26.026-14.546,51.94-22.554,77.714c-17.674,56.878-36.97,113.07-57.198,168.812
			c-7.451,19.859-15.512,39.412-23.948,58.745c-31.106,71.283-67.561,139.602-109.367,203.297
			c-36.706,53.063-77.509,102.596-123.476,145.181c-11.971,10.168-24.244,19.849-36.878,28.917
			c-20.942,15.029-35.047,36.214-43.078,62.431c-42.241,17.256-85.757,33.496-89.049,71.275c0,0,28.536,81.308,8.084,69.574
			c-64.673-37.106-137.431-92.766-194.02-88.128c0,0-80.926-8.845,99.634-302.874
			C374.822,1798.578,399.481,1772.25,425.707,1748.103z"/>
		<path style="opacity:0.56;fill:#5B151E;" d="M1067.872,753.324c-12.952,25.398-15.655,56.543-9.671,84.826
			c8.461,39.994,16.82,80.018,24.938,120.106c0.239,1.182,0.475,2.364,0.713,3.546c-9.637-7.826-20.517-13.761-31.599-17.876
			c-12.752-4.588-25.503-5.243-38.254-1.966c-12.767,0.664-24.656,5.019-35.668,13.063c-11.179,6.918-20.151,16.369-26.916,28.353
			c-8.48,10.632-14.203,23.111-17.171,37.436c-0.902,7.418-2.355,14.656-4.277,21.745c-3.198,6.886-6.764,13.526-10.613,19.964
			c-20.448,27.393-44.536,50.826-68.248,74.423c-30.184,30.037-61.3,58.856-92.815,87.04
			c-41.724,36.72-84.183,72.326-126.993,107.359c-20.638,16.889-41.293,33.704-62.221,50.06
			c31.72-98.359,44.568-172.044,52.119-215.369c16.168-92.766,115.88-370.065,307.202-450.188l160.035,9.927
			C1079.936,733.071,1073.077,742.248,1067.872,753.324z"/>
		<path style="fill:#9A1C21;" d="M366.544,1806.118c198.062-315.404,238.483-547.319,254.651-640.084
			c16.168-92.766,115.88-370.065,307.202-450.188l135.927,8.431c-4.497,2.849-8.95,5.883-13.358,9.104
			c-10.716,7.18-21.419,14.414-31.737,22.333c-4.628,3.552-9.14,7.272-13.578,11.129c-22.516,19.564-45.454,39.017-67.192,59.731
			c-1.935,1.845-3.836,3.738-5.695,5.684c-3.461,3.624-6.78,7.428-9.9,11.441c-1.464,1.882-2.867,3.82-4.256,5.775
			c-17.385,24.475-35.205,50.671-51.305,76.291c-2.797,4.451-5.356,9.094-7.651,13.909c-1.116,2.34-2.17,4.72-3.163,7.131
			c-11.963,29.038-22.471,59.675-33.002,89.418c-4.358,12.31-7.164,25.005-9.695,37.947c-1.632,8.342-3.011,16.747-4.194,25.188
			c-5.267,37.582-9.352,75.476-13.37,113.245c-3.476,32.671-3.798,65.501-6.207,98.246c-0.992,13.489-2.045,26.972-3.208,40.442
			c-4.756,29.873-10.919,59.383-19.016,88.258c-6.895,14.571-14.421,28.692-22.485,42.469c-9.058,11.885-18.494,23.415-28.365,34.39
			c-11.193,7.73-22.657,14.97-34.088,22.232c-19.623,12.467-39.195,25.163-57.085,40.77c-25.711,22.429-60.415,48.819-84.76,78.276
			c-25.516,30.874-48.931,65.011-68.103,101.443c-5.22,9.92-9.571,20.505-13.651,31.097
			c-12.815,33.268-25.747,66.573-36.828,100.664c-1.926,5.926-3.677,11.932-5.145,18.029c-5.027,20.885-6.329,43.734-8.775,64.629
			c-1.758,15.016-7.07,42.161-6.091,61.642c0.056,1.172,0.145,2.34,0.266,3.505c3.64,31.085,7.28,62.17,10.92,93.255
			c0.193,1.406,0.348,2.805,0.609,4.198c0.455,2.427,1.146,4.678,1.896,6.993c8.984,24.428,17.968,48.856,26.951,73.285
			c-63.576-37.05-134.364-90.16-189.696-85.625C253.365,2130.798,168.482,2121.522,366.544,1806.118z"/>
	</g>
	<g>
		<path style="fill:#DF8867;" d="M1397,1387c0,0,4,39.5,9,45.5s4.5,24.5,4.5,37.5s-4.5,53.5-23.5,65.5s-9,13.5-55-12.5s-50-36-50-36
			s6-43,12-49s13-6,19-12s11-29,11-29L1397,1387z"/>
		<path style="fill:#282247;" d="M1239.697,711.872c0,0,158.194,332.441,173.303,391.128s-10.288,317.453-10.288,317.453
			S1343,1433,1314,1407l-1-230l-109.565-263.619C1203.435,913.381,1155.88,757.04,1239.697,711.872z"/>
		<g>
			<g>
				<path style="fill:#643530;" d="M1546.75,1626.94l-368.726-110.479c0,0-19.132,1.663-19.111,8.699
					c0.021,7.036-32.627,288.472-32.627,288.472l366.483,160.236c0,0,52.609-6.332,47.807-12.366
					c-4.802-6.034,10.971-330.872,10.971-330.872L1546.75,1626.94z"/>
				<path style="fill:#461F1C;" d="M1492.768,1973.867c0,0,52.609-6.332,47.807-12.366c-2.902-3.646,8.332-232.4,10.359-327.766
					c0.192-9.016-13.185-7.365-14.549,1.795L1492.768,1973.867z"/>
				<g>
					<path style="fill:#461F1C;" d="M1300.823,1782.92c16.606-3.48,223.169-68.164,231.954-70.915l-0.257-2.279
						c-2.151,0.673-215.223,67.395-231.704,70.849c-14.624,3.065-25.58-2.026-32.828-5.396c-0.856-0.398-1.66-0.771-2.411-1.104
						c-5.253-2.532-70.196-107.025-112.566-176.644l-2.112,1.538c10.842,17.812,106.127,174.127,113.358,177.336
						c0.743,0.33,1.536,0.698,2.38,1.092C1274.131,1780.877,1285.455,1786.141,1300.823,1782.92z"/>
				</g>
				
					<ellipse transform="matrix(0.7016 -0.7126 0.7126 0.7016 -862.2386 1442.0813)" style="fill:#F69220;" cx="1290.559" cy="1750.454" rx="17.751" ry="14.402"/>
			</g>
			<path style="fill:#643530;" d="M1415.144,1614.624c0,0,23.647-91.793,18.823-104.864c-3.516-9.529-28.656-22.011-42.022-28.076
				c-6.899-3.13-16.122,5.239-13.57,12.479c0.153,0.433,0.328,0.873,0.529,1.32c4.817,10.725,31.156,19.287,33.575,28.168
				c2.419,8.881-16.524,73.872-16.496,83.254S1415.144,1614.624,1415.144,1614.624z"/>
		</g>
	</g>
	<path style="fill:#BABABE;" d="M1024.33,627.394l142.553,20.578c0,0,16.499,18.657,15.341,36.446
		c-1.158,17.789-22.339,37.231-22.339,37.231l-90.418-17.02L1024.33,627.394z"/>
	<path style="fill:#DF8867;" d="M1022.1,494.595c0,0,22.077,129.681,14.569,158.334s-64.426,52.603-64.426,52.603
		s122.976,87.107,169.477,60.662c46.501-26.444,61.958-39.588,61.958-39.588s-32.007-21.459-37.409-42.19
		c-5.403-20.73-6.409-183.402-6.409-183.402L1022.1,494.595z"/>
	<path style="fill:#D18061;" d="M1123.29,621.377c11.856,9.16,23.712,18.32,35.568,27.48c1.52,1.531,3,3.085,4.454,4.653
		c-2.84-53.35-3.453-152.495-3.453-152.495l-137.76-6.42c0,0,9.572,56.228,13.967,102.815
		C1067.229,597.75,1096.306,605.727,1123.29,621.377z"/>
	<path style="fill:#EE9E78;" d="M1214.756,369.769c0,0,26.194,79.282,30.513,108.586c4.319,29.304-35.09,94.763-46.245,108.153
		c-11.154,13.39-34.657,18.005-34.657,18.005s-87.471-18.431-105.324-33.304c-17.853-14.873-67.55-89.539-67.55-89.539
		S929,384.245,936.581,349.733c7.581-34.512,38.36-113.209,109.909-124.675s95.424-11.991,121.391,37.615
		C1179.311,284.508,1214.756,369.769,1214.756,369.769z"/>
	<path style="fill:#31141E;" d="M1187.477,333.338l-40.676,37.419c0,0-5.625,0.883-7.577-5.904
		c-1.952-6.787,22.733-35.932,31.751-37.791C1179.993,325.203,1187.663,328.876,1187.477,333.338z"/>
	<path style="fill:#31141E;" d="M1038.153,383.128l62.347,5.063c0,0,5.633-3.129,2.649-10.543
		c-2.984-7.415-45.303-16.231-54.643-11.61C1039.166,370.659,1034.88,379.276,1038.153,383.128z"/>
	<path style="fill:#2B203D;" d="M1172.865,378.445c4.027,9.201,12.62,14.327,19.191,11.451s8.635-12.667,4.608-21.868
		c-4.027-9.201-12.619-14.327-19.191-11.451C1170.901,359.453,1168.838,369.244,1172.865,378.445z"/>
	
		<ellipse transform="matrix(0.9161 -0.401 0.401 0.9161 -78.0262 467.3686)" style="fill:#2B203D;" cx="1077.668" cy="420.112" rx="12.989" ry="18.185"/>
	<g>
		<path style="fill:#EF7A6D;" d="M1164.91,484.116c5.834-3.809,12.552-8.954,12.724-14.978c0.136-4.732-3.729-8.941-11.817-12.866
			c-14.06-6.824-29.982-65.409-34.93-87.407l-4.979,1.419c0.046,0.2,4.593,20.313,11.287,41.232
			c9.115,28.488,17.784,44.895,25.761,48.767c6.465,3.138,9.698,6.275,9.61,9.326c-0.085,2.978-3.358,6.475-10.301,11.009
			L1164.91,484.116z"/>
	</g>
	<g>
		<g>
			<path style="fill:#4C2421;" d="M1325.98,2263.048c0,0,76.347,116.461,120.343,126.813c0,0,38.82,33.644,18.116,56.937
				c-20.704,23.292-56.937,23.292-80.229,18.116s-100.933-82.817-100.933-82.817l-5.176-12.94l-7.764,12.94l-28.468-20.704
				l15.528-106.109L1325.98,2263.048z"/>
			<path style="fill:#4C2421;" d="M848.62,2425.657l-2.588,85.405l-28.468,43.997l-5.176,2.588c0,0-10.352,100.933-12.94,106.109
				c-2.588,5.176-2.588,18.116-18.116,31.056c-15.528,12.94-54.348,31.056-80.229,5.176c-25.88-25.88-28.468-51.76-28.468-51.76
				s72.464-168.221,75.052-183.75s12.94-51.76,12.94-51.76L848.62,2425.657z"/>
			<path style="fill:#282247;" d="M1283.192,1269.997c0,0,22.698,87.283,24.736,183.018c1.845,86.717,47.066,677.746,28.512,800.953
				c-1.754,11.647-11.268,20.546-23.004,21.544l-30.139,2.566c-19.317,1.644-35.758-13.902-35.197-33.281l-123.869-688.417
				l-270.435,874.452c0,0-79.116,34.139-100.933-10.352c-10.05-20.495,132.024-968.817,149.537-1049.436
				c17.512-80.62,81.22-136.336,81.22-136.336L1283.192,1269.997z"/>
			<path style="fill:#161330;" d="M786.679,2132.633c-22.065,158.647-37.35,280.639-33.815,287.848
				c21.817,44.491,100.933,10.352,100.933,10.352l101.255-327.409C901.529,2122.691,845.405,2132.428,786.679,2132.633z"/>
			<path style="fill:#161330;" d="M1232.009,1938.383c-10.697,11.516-21.753,22.419-33.153,32.731l49.245,273.684
				c-0.562,19.379,15.88,34.925,35.197,33.281l30.139-2.566c11.736-0.999,21.25-9.897,23.004-21.545
				c9.683-64.3,1.996-256.02-7.83-436.975C1303.376,1861.526,1271.186,1901.994,1232.009,1938.383z"/>
			<path style="fill:#262727;" d="M1269.06,1273.296c0,0,0,39.683-43.996,62.975c-43.996,23.292-108.697,36.232-142.341,28.468
				c-33.644-7.764-131.989-56.936-137.165-85.405l0.863,0.863L1269.06,1273.296z"/>
			
				<rect x="1049.078" y="1315.567" transform="matrix(-0.9747 -0.2234 0.2234 -0.9747 1787.5712 2882.5405)" style="fill:#212A4E;" width="15.528" height="49.172"/>
			
				<rect x="1196.595" y="1302.627" transform="matrix(-0.9124 0.4092 -0.4092 -0.9124 2846.3914 2045.3389)" style="fill:#212A4E;" width="15.528" height="49.172"/>
			
				<rect x="999.906" y="1297.451" transform="matrix(-0.9022 -0.4314 0.4314 -0.9022 1346.4138 2949.437)" style="fill:#212A4E;" width="15.528" height="49.172"/>
			
				<rect x="1245.767" y="1279.334" transform="matrix(-0.733 0.6802 -0.6802 -0.733 3059.3298 1407.0852)" style="fill:#212A4E;" width="15.528" height="49.172"/>
			<path style="fill:#D9DDE9;" d="M1191.419,686.678l-55.826,67.72l-123.725-78.999l-143.771,75.229
				c0,0,51.31,255.682,54.414,307.414c1.908,31.801,10.978,111.235,9.489,164.958c-1.003,36.209,10.919,65.369,45.177,77.136
				c43.082,14.798,101.334,31.022,142.135,27.698c33.523-2.731,69.764-11.036,99.022-19.169
				c35.186-9.781,60.522-40.436,63.432-76.84c7.851-98.212,21.082-292.82,8.981-361.215
				c-16.456-93.009-57.919-160.641-57.919-160.641L1191.419,686.678z"/>
			<polygon style="fill:#BABABE;" points="1137.071,753.966 1181.067,735.85 1214.711,753.966 1181.067,702.206 			"/>
			<polygon style="fill:#D9DDE9;" points="1126.6,760.958 1118.397,717.041 1024.33,627.394 983.543,689.916 1069.873,782.229 			
				"/>
			<path style="fill:#D9DDE9;" d="M1166.884,647.971l24.536,20.59c10.584,23.188,23.292,85.405,23.292,85.405l-31.056-38.82
				l-46.584,38.82C1137.071,753.966,1182.94,700.869,1166.884,647.971z"/>
			<polygon style="fill:#BABABE;" points="1064.606,759.143 1118.954,717.734 1134.483,753.966 1106.014,743.614 			"/>
			<g>
				<path style="fill:#CDD0D7;" d="M1121.338,1375.252l52.977-5.754c4.906-0.533,8.483-4.982,7.95-9.888l-2.813-25.901
					c-0.533-4.906-4.982-8.483-9.888-7.95l-52.978,5.754c-4.906,0.533-8.483,4.982-7.95,9.888l2.813,25.901
					C1111.983,1372.207,1116.432,1375.784,1121.338,1375.252z"/>
				<path style="fill:#262727;" d="M1123.735,1370.776l47.278-5.135c4.182-0.454,7.231-4.247,6.777-8.429l-2.261-20.815
					c-0.454-4.182-4.247-7.231-8.429-6.777l-47.279,5.135c-4.182,0.454-7.231,4.247-6.777,8.429l2.261,20.815
					C1115.76,1368.181,1119.553,1371.231,1123.735,1370.776z"/>
			</g>
			<g>
				<g>
					<path style="fill:#3F1D1B;" d="M1329.256,2280.074c9.625,7.505,21.272,11.514,31.967,17.187
						c5.695,3.021,11.257,6.375,16.277,10.437c2.221,1.797,4.342,3.725,6.301,5.805c2.036,2.163,6.948,6.694,6.989,9.915
						c-0.535,1.534-1.07,3.068-1.605,4.602c-0.978-0.289-1.954-0.589-2.926-0.899c-1.222-0.391-2.437-0.801-3.646-1.229
						c-3.03-1.073-6.018-2.265-8.927-3.637c-5.83-2.75-11.42-6.159-16.15-10.569c-8.724-8.133-11.524-20.494-20.524-28.223
						c-1.106-0.95-2.899-0.061-2.507,1.459c2.131,8.268,2.676,16.815,1.357,25.267c-0.59,3.785-1.536,7.526-2.812,11.139
						c-0.778,2.204-1.686,4.354-2.721,6.449c-1.027,2.078-1.89,5.953-5.179,2.542c-1.128-1.17-0.724-4.507-0.899-6.249
						c-0.242-2.41-0.403-4.828-0.483-7.249c-0.14-4.236-0.048-8.481,0.294-12.706c0.724-8.953,2.603-17.703,5.398-26.23
						c0.603-1.839-2.293-2.627-2.893-0.798c-3.633,11.082-5.674,22.615-5.85,34.285c-0.084,5.572,0.215,11.187,1.008,16.706
						c0.393,2.738,1.202,7.153,4.631,7.711c3.593,0.585,5.348-4.037,6.564-6.498c2.243-4.537,3.948-9.332,5.059-14.27
						c2.3-10.229,2.032-20.76-0.581-30.896c-0.836,0.486-1.671,0.973-2.507,1.459c6.095,5.234,8.759,12.687,13.019,19.27
						c3.579,5.531,8.295,10.138,13.673,13.916c5.549,3.897,11.728,6.834,18.058,9.224c3.437,1.298,10.69,5.539,13.599,1.641
						c3.429-4.595-1.469-11.241-4.247-14.718c-4.32-5.405-9.64-9.898-15.351-13.769c-13.328-9.034-29.569-13.294-42.263-23.192
						C1329.872,2276.779,1327.734,2278.888,1329.256,2280.074L1329.256,2280.074z"/>
				</g>
			</g>
			<g>
				<g>
					<path style="fill:#3F1D1B;" d="M781.157,2445.812c2.114,16.778,9.921,32.11,14.787,48.165
						c2.673,8.82,4.798,17.872,5.469,27.084c0.556,7.643,1.062,18.031-2.853,24.92c-0.437,0.877-1.01,1.664-1.717,2.363
						c-2.991,1.337-4.851,0.8-5.581-1.612c-1.066-1.241-1.71-3.233-2.453-4.719c-2.068-4.134-3.967-8.354-5.606-12.677
						c-3.061-8.071-5.299-16.555-5.843-25.195c-0.551-8.749,1.08-16.992,3.493-25.348c2.134-7.387,4.154-14.658,3.48-22.417
						c-0.123-1.412-2.003-2.13-2.795-0.757c-5.784,10.017-13.494,18.79-22.83,25.646c-4.337,3.185-8.98,5.954-13.843,8.257
						c-2.662,1.26-5.392,2.368-8.178,3.323c-1.089,0.373-2.492,1.115-3.663,1.162c-1.351,0.833-2.404,0.448-3.16-1.156
						c-1.979-0.859-2.232-2.065-0.759-3.618c5.326-9.601,15.022-18.361,23.23-25.469c9.239-8,19.443-14.741,30.324-20.286
						c1.721-0.877,0.204-3.466-1.514-2.59c-13.306,6.78-25.6,15.404-36.4,25.728c-5.544,5.3-10.665,11.026-15.337,17.107
						c-2.266,2.948-6.251,7.842-3.833,11.839c2.617,4.327,9.123,1.164,12.635-0.073c6.402-2.255,12.538-5.293,18.219-9.005
						c11.428-7.469,20.877-17.538,27.698-29.35c-0.932-0.252-1.863-0.505-2.795-0.757c1.313,15.106-7.272,29.098-7.104,44.298
						c0.159,14.424,4.949,28.41,11.202,41.258c1.607,3.302,3.943,11.505,8.946,11.021c4.357-0.422,7.081-5.302,8.259-8.971
						c4.49-13.979,1.647-30.618-1.996-44.449c-4.75-18.039-14.139-35.112-16.484-53.722
						C783.919,2443.922,780.916,2443.898,781.157,2445.812L781.157,2445.812z"/>
				</g>
			</g>
			<path style="fill:#362D55;" d="M977.367,691.339c0,0,173.571,236.17,179.262,278.851c0,0,46.763-181.72,48.781-259.265
				c0.195-7.487-4.522-15.516-0.749-19.289c0.319-0.319,31.64,19.62,31.64,19.62s65.445,65.445,62.599,281.697
				c-2.152,163.558-21.059,291.364-2.845,330.069c45.527,96.744,2.845,165.034,2.845,165.034s-119.508,11.382-142.271-150.807
				c-27.869,88.615-94.018,130.5-136.58,136.58c-119.508,17.073-136.58-8.536-136.58-8.536l39.836-213.407
				c0,0-9.186-227.067-25.934-278.568C880.623,921.818,867.686,692.554,905,651L977.367,691.339z"/>
		</g>
		<g>
			<path style="fill:#4E4575;" d="M1159.427,1337.772c30.895-165.715,22.943-258.039,11.307-284.22
				c-31.583-71.06-175.902-154.998-197.182-167.078l75.911-30.078l-89.236-36.572l3.44-136.156l-2.837-1.792l-3.312,139.912
				l84.335,34.563l-74.927,29.688l2.641,1.457c1.646,0.907,165.008,91.702,198.567,167.212
				c11.539,25.959,19.304,117.301-11.504,282.542L1159.427,1337.772z"/>
		</g>
		<g>
			<path style="fill:#4E4575;" d="M1170.827,1054.415c14.643-71.747,36.963-120.334,53.109-148.459
				c17.489-30.467,31.7-44.148,31.842-44.283l1.827-1.74l-61.618-16.806l57.261-31.155l-31.533-110.509l-2.737,0.781l30.908,108.316
				l-61.477,33.45l63.669,17.364c-4.333,4.57-16.222,18.13-30.526,43.018c-16.278,28.324-38.776,77.245-53.511,149.453
				L1170.827,1054.415z"/>
		</g>
	</g>
	<path style="fill:#4C2B2C;" d="M985.105,445.922c0,0-22.072-59.522-8.825-75.105l-19.686-61.875c0,0,89.87,8.788,134.13-0.118
		c44.26-8.907,88.716-25.194,88.716-25.194l28.67,67.322l-16.008-80.331c0,0,1.12-51.844-8.854-67.481
		c-9.973-15.637-39.866-74.157-150.465-30.371c-110.599,43.786-183.327,71.445-189.46,127.081
		c-6.133,55.636,5.553,110.311,22.928,127.767c17.376,17.455,127.792,86.82,167.301,149.287l-5.339-42.713L985.105,445.922z"/>
	<path style="fill:#3A1D1E;" d="M985.105,445.922c0,0-22.072-59.522-8.825-75.105l-7.386-23.214
		c-1.417-0.328-2.833-0.66-4.251-0.984c-31.518-1.075-61.01-9.576-88.474-25.504c-10.773-8.323-21.546-16.646-32.32-24.97
		c-0.205,1.223-0.388,2.454-0.526,3.705c-6.133,55.636,5.553,110.311,22.928,127.767c17.376,17.455,127.792,86.82,167.301,149.287
		l-5.339-42.713L985.105,445.922z"/>
	<path style="fill:#3A1D1E;" d="M1202.644,338.115l5.467,12.836l-2.81-14.102C1204.415,337.272,1203.533,337.701,1202.644,338.115z"
		/>
	<path style="fill:#EE9E78;" d="M985.369,452.848c0,0-19.267-21.343-35.478-0.068c-16.211,21.275,4.174,54.89,21.282,61.581
		c17.108,6.691,48.944,21.115,52.662,16.652c3.718-4.463,5.353-13.686,5.353-13.686L985.369,452.848z"/>
	<g>
		<path style="fill:#EE9E78;" d="M612.209,306.007l-27.664-47.424l-19.84-81.842c-3.679-15.174,0.191-31.193,10.416-42.993
			c21.255-24.53,58.782-63.466,82.83-63.466c35.107,0,57.448-3.192,67.022,25.532c9.575,28.724,9.575,73.405,3.192,89.363
			c-6.383,15.958-25.532,38.299-25.532,38.299l-1.81,36.197c-0.87,17.407-9.842,33.402-24.242,43.221l-19.449,13.261
			C642.047,326.438,621.407,321.776,612.209,306.007z"/>
		<path style="fill:#DF8867;" d="M747.642,171.139l-49.193,32.634c-5.85,3.881-13.813,2.27-17.694-3.581l-5.291-7.976
			c-3.881-5.85-2.27-13.813,3.581-17.694l49.193-32.634c5.85-3.881,13.813-2.27,17.694,3.581l5.291,7.976
			C755.104,159.296,753.493,167.258,747.642,171.139z"/>
		<path style="fill:#DF8867;" d="M588.094,172.83c3.208-1.57,6.576-2.825,10.035-3.84c3.456-1.049,7.032-1.745,10.723-2.12
			c1.845-0.2,3.73-0.24,5.64-0.132c1.909,0.1,3.862,0.357,5.807,0.927c1.942,0.555,3.896,1.378,5.707,2.592
			c1.799,1.231,3.384,2.887,4.585,4.757c0.643,0.958,1.068,1.856,1.525,2.788c0.397,0.944,0.793,1.895,1.089,2.868
			c0.614,1.938,1.062,3.919,1.292,5.892c0.454,3.954,0.304,7.861-0.239,11.642c-0.567,3.776-1.425,7.459-2.596,11.018
			c-0.581,1.781-1.215,3.539-1.913,5.276c-0.35,0.868-0.709,1.734-1.093,2.595c-0.402,0.88-0.768,1.67-1.273,2.646l-0.213,0.412
			l-0.403,0.48c-0.154,0.184-0.475,0.595-0.704,0.915c-0.249,0.343-0.483,0.697-0.707,1.048c-0.439,0.704-0.816,1.413-1.085,2.059
			c-0.265,0.641-0.392,1.217-0.424,1.522c-0.033,0.348,0.033,0.19-0.072,0.09c-0.108-0.109-0.02,0.028,0.386,0.231
			c0.409,0.199,1.093,0.382,1.819,0.531l0.591,0.092c0.188,0.033,0.389,0.067,0.66,0.094l1.505,0.175
			c1.008,0.131,1.995,0.197,2.992,0.293c3.972,0.313,7.917,0.413,11.856,0.187c3.943-0.198,7.841-0.828,11.733-1.604
			c7.737-1.747,15.283-4.703,22.461-8.605c7.225-3.852,13.964-8.735,20.669-13.886c-5.064,6.764-11.107,12.854-17.964,18.088
			c-6.881,5.181-14.697,9.383-23.142,12.011c-2.129,0.573-4.246,1.254-6.43,1.633c-1.087,0.208-2.169,0.468-3.266,0.629
			l-3.297,0.454c-4.408,0.466-8.861,0.614-13.246,0.36c-1.091-0.07-2.196-0.116-3.269-0.222l-1.62-0.14
			c-0.25-0.017-0.568-0.056-0.898-0.1l-0.964-0.13c-1.326-0.253-2.692-0.562-4.191-1.242c-1.47-0.69-3.189-1.791-4.406-3.698
			c-1.224-1.873-1.612-4.189-1.445-5.923c0.134-1.785,0.61-3.243,1.148-4.532c0.549-1.282,1.184-2.415,1.863-3.48
			c0.343-0.528,0.694-1.044,1.065-1.545c0.391-0.523,0.709-0.943,1.235-1.555l-0.616,0.892c0.313-0.59,0.705-1.398,1.042-2.123
			c0.351-0.746,0.697-1.502,1.029-2.264c0.666-1.524,1.277-3.077,1.839-4.641c1.102-3.134,2.071-6.304,2.691-9.498
			c0.624-3.187,0.992-6.386,0.837-9.482c-0.042-1.553-0.255-3.062-0.577-4.528c-0.151-0.74-0.382-1.442-0.601-2.154
			c-0.267-0.679-0.514-1.422-0.815-1.963c-1.121-2.36-3.256-4.182-6.071-5.375c-2.792-1.228-6.107-1.755-9.464-2.031
			C602.14,170.771,595.084,171.568,588.094,172.83z"/>
	</g>
	<g>
		<path style="fill:#BE1E2D;" d="M1115.209,733.349c0,0,29.418,9.693,48.932-8.51l16.926,2.501l-13.735,35.794
			c0,0,26.74,58.508,58.506,73.398c31.766,14.891,131.904-3.191,170.199,19.147c38.295,22.339,90.418,82.972,86.163,122.33
			l-15.956,43.613l-52.123-31.912c0,0-9.573-77.653-76.589-95.737c-67.016-18.084-107.438-7.446-130.84-27.657
			c-23.402-20.211-62.761-103.183-62.761-103.183l-41.486-20.211L1115.209,733.349z"/>
		<path style="fill:#9A1420;" d="M1206.691,866.317c8.229,7.107,18.574,10.394,31.429,12.463
			c9.507-5.898,19.693-10.633,30.576-14.173c22.279-11.705,46.288-17.072,72.026-16.101c20.646,0.064,40.43,3.29,59.359,9.645
			c-1.362-0.867-2.713-1.695-4.044-2.472c-38.295-22.339-138.433-4.257-170.199-19.147c-31.766-14.891-58.506-73.398-58.506-73.398
			l13.735-35.794l-16.926-2.501c-19.514,18.203-48.932,8.51-48.932,8.51l-12.765,9.574l41.486,20.211
			C1143.93,763.134,1183.288,846.106,1206.691,866.317z"/>
	</g>
	<path style="fill:#BE1E2D;" d="M1105.14,541.307c0,0,4.347-22.475,17.386-28.094c13.04-5.619,36.222-2.809,49.262-9.833
		s13.04-2.809,14.489,2.809c1.449,5.619-4.347,19.666-2.898,26.689c1.449,7.023-2.898,21.07-18.835,21.07
		C1148.606,553.949,1105.14,541.307,1105.14,541.307z"/>
	<path style="fill:#FFFFFF;" d="M1171.438,502.262c-12.757,5.708-36.013,4.921-48.823,9.624c-3.638,1.336-6.523,3.608-8.791,6.175
		c8.496,0.844,18.222,1.069,28.534,0.525c17.172-0.906,32.516-3.756,43.104-7.569c0.718-3.051,1.249-5.85,0.55-7.51
		C1184.354,499.567,1184.195,496.554,1171.438,502.262z"/>
	<path style="fill:#362D55;" d="M599,313c0,0,56-76,114-50l44,278l148,110c0,0,15.608,34.471,26,114s-32,104-40,104S642,619,642,619
		s-12-12-12-38S599,313,599,313z"/>
</g>
<path style="fill:#C87C5D;" d="M1380.615,1480.134c-0.558,0.752-0.93,1.612-1.265,2.479c-0.625,1.754-0.935,3.598-1.107,5.433
	c-0.201,1.84-0.217,3.685-0.186,5.527c0.055,1.733-0.204,3.388-0.938,4.793c-1.433,2.838-4.611,4.34-7.924,4.929
	c-1.662,0.319-3.388,0.439-5.115,0.447c-1.648,0.022-3.377-0.076-4.948-0.285l-9.705-3.425l-9.889-3.385l-9.895-3.369l-8.948-2.962
	c-0.076-0.167-0.152-0.336-0.219-0.494c-0.187-0.461-0.358-0.929-0.507-1.407c-0.278-0.956-0.53-1.927-0.618-2.902
	c-0.24-1.949-0.055-3.878,0.555-5.663c0.3-0.896,0.722-1.752,1.235-2.566l0.407-0.6c0.134-0.189,0.273-0.438,0.396-0.54
	c0.133-0.131,0.227-0.281,0.378-0.409l0.454-0.387c0.674-0.491,1.509-0.911,2.413-1.266c0.937-0.32,1.908-0.617,2.947-0.809
	c4.139-0.799,8.646-0.879,13.103-0.697c4.463,0.202,8.998,0.715,13.396,1.377l13.213,1.99l-11.935-5.752
	c-0.203-0.098-0.646-0.384-0.98-0.631c-0.359-0.252-0.7-0.572-1.056-0.852l-0.996-0.978c-0.319-0.344-0.613-0.718-0.924-1.074
	c-0.323-0.347-0.582-0.753-0.858-1.144c-0.267-0.399-0.569-0.773-0.81-1.192l-0.717-1.266c-0.25-0.417-0.48-0.845-0.67-1.299
	c-1.698-3.526-2.831-7.423-3.355-11.433l-0.249-1.498l-0.135-1.517l-0.272-3.045c-0.04-2.04-0.089-4.09-0.068-6.145
	c0.114-2.05,0.152-4.116,0.33-6.173l0.619-6.183l-1.401,6.075c-0.397,2.042-0.655,4.112-0.989,6.177
	c-0.169,1.033-0.189,2.082-0.283,3.126c-0.071,1.045-0.167,2.092-0.218,3.141l0.005,3.161l0.004,1.585l0.132,1.584
	c0.267,4.229,1.164,8.476,2.785,12.531c0.175,0.518,0.418,1.009,0.672,1.498l0.744,1.475c0.253,0.49,0.577,0.946,0.864,1.421
	c0.295,0.465,0.574,0.939,0.927,1.371c-2.488-0.353-4.983-0.624-7.509-0.824c-2.339-0.171-4.696-0.264-7.077-0.228
	c-2.382,0.033-4.787,0.207-7.229,0.683c-2.427,0.478-4.956,1.186-7.349,2.885l-0.863,0.716c-0.283,0.246-0.538,0.557-0.801,0.84
	c-0.29,0.301-0.432,0.557-0.634,0.832l-0.565,0.817c-0.719,1.114-1.329,2.322-1.771,3.594c-0.911,2.538-1.163,5.297-0.8,7.891
	c0.14,1.309,0.47,2.568,0.849,3.803c0.198,0.615,0.427,1.221,0.677,1.819c0.278,0.619,0.505,1.141,0.916,1.848l0.457,0.786
	l0.886,0.284l9.954,3.187l9.981,3.102l9.987,3.086l10.017,2.992l0.221,0.066l0.112,0.009c3.882,0.319,7.621,0.136,11.398-0.82
	c1.869-0.484,3.729-1.201,5.418-2.321c1.672-1.114,3.161-2.723,3.897-4.658c0.79-1.907,0.886-3.975,0.664-5.847
	c-0.172-1.777-0.337-3.562-0.336-5.343c-0.028-1.784,0.107-3.568,0.494-5.299c0.212-0.856,0.461-1.719,0.896-2.492
	c0.423-0.763,0.989-1.525,1.844-1.86C1381.852,1478.682,1381.155,1479.395,1380.615,1480.134z"/>
</svg>
