<svg xmlns="http://www.w3.org/2000/svg" viewBox="0 0 62.48 64.26"><defs><style>.cls-1{fill:#5d43a0;}.cls-2{fill:#fff;}</style></defs><g id="Layer_2" data-name="Layer 2"><g id="Layer_1-2" data-name="Layer 1"><path d="M62.48,31.17A34.34,34.34,0,0,1,58.84,46.8a29.6,29.6,0,0,1-5.78,7.93,34,34,0,0,1-7.65,5.71A31.49,31.49,0,0,1,34.63,64a25.47,25.47,0,0,1-6.11.07A30.27,30.27,0,0,1,21,62.39a32.81,32.81,0,0,1-9.8-6A31.16,31.16,0,0,1,2.82,45.13,30.5,30.5,0,0,1,.26,35.71,38.69,38.69,0,0,1,0,30.33a32.15,32.15,0,0,1,2.49-11A31.89,31.89,0,0,1,16.39,4,30,30,0,0,1,27.12.35,30.06,30.06,0,0,1,31.36,0,31.47,31.47,0,0,1,41,1.62,30.1,30.1,0,0,1,48.6,5.37c.89.61,1.71,1.33,2.53,2s1.39,1.24,2.09,1.86a22.83,22.83,0,0,1,3.36,3.92,31.28,31.28,0,0,1,4.27,8.43,28.46,28.46,0,0,1,1.43,6.77C62.37,29.48,62.44,30.6,62.48,31.17ZM41.09,3,41,3.1l.38.26a12.36,12.36,0,0,1,3.46,3.18A14.09,14.09,0,0,1,47.7,14.1a12,12,0,0,1-3,9.2,4.17,4.17,0,0,1-3.34,1.47c-1.64-.05-3.27-.09-4.91,0a7.76,7.76,0,0,0-4.43,1.56,8.57,8.57,0,0,0-2.94,4.23,5.9,5.9,0,0,0,0,4.39,7.17,7.17,0,0,0,3.73,3.72c3.31,1.54,6.61,3.11,9.91,4.67a4.49,4.49,0,0,1,2.79,4.52,5,5,0,0,1-3.86,4.26,21.18,21.18,0,0,1-4.57.32c-3.39,0-6.78,0-10.17,0-.32,0-.44-.12-.43-.43s0-.79,0-1.18c0-2,0-4,0-6.05,0-.38.13-.56.53-.54s.69,0,1,0c1.34,0,1.07-.09,1.34,1a4.82,4.82,0,0,0,4.29,3.34c1.74-.05,3.48,0,5.22,0a10.21,10.21,0,0,0,2.75-.29c.66-.17.92-.5,1.06-1.5A1.07,1.07,0,0,0,42,45.61c-.29-.15-.61-.27-.91-.41-2.68-1.26-5.37-2.53-8.06-3.77A6,6,0,0,0,31,40.67c-2.46-.11-4.93-.09-7.4-.09a5.91,5.91,0,0,0-2.75.67,9.2,9.2,0,0,0-3,2.76,9.53,9.53,0,0,0-1.76,5.71A15.2,15.2,0,0,0,16.43,53a10.74,10.74,0,0,0,1.9,4.48,13.42,13.42,0,0,0,8.14,5.09A24.23,24.23,0,0,0,38.86,62a31.77,31.77,0,0,0,13.75-8.44A29.28,29.28,0,0,0,59.37,42.7a32.09,32.09,0,0,0,1.76-14.57,30.68,30.68,0,0,0-3-10.16A31.75,31.75,0,0,0,51.05,8.7a27.5,27.5,0,0,0-9.38-5.5ZM13.61,34.9,28.17,15.46H10.86c-.66,0-.66,0-.66.68v1.77c0,.61,0,.61.63.61H22.65c.18,0,.36,0,.7.06L8.77,38.05l.06.13H27.17a.55.55,0,0,0,.18,0,.28.28,0,0,0,.11-.08l0,0V38c-.08-.1-.18-.24-.29-.36a6.57,6.57,0,0,1-1.51-2.18A.58.58,0,0,0,25,35H14.4C14.18,35,14,34.94,13.61,34.9ZM36.46,15.46c-.94,0-1.78,0-2.62,0a.92.92,0,0,0-.87.43q-5.5,7.24-11,14.47c-.08.11-.14.24-.27.44,1,0,1.86,0,2.73,0a1,1,0,0,0,1-.49q2.14-2.89,4.32-5.78c2.13-2.85,4.27-5.68,6.4-8.53C36.19,15.86,36.29,15.7,36.46,15.46Z"/><path class="cls-1" d="M41.09,3l.58.2a27.5,27.5,0,0,1,9.38,5.5A31.75,31.75,0,0,1,58.18,18a30.68,30.68,0,0,1,3,10.16A32.09,32.09,0,0,1,59.37,42.7a29.28,29.28,0,0,1-6.76,10.81A31.77,31.77,0,0,1,38.86,62a24.23,24.23,0,0,1-12.39.62,13.42,13.42,0,0,1-8.14-5.09A10.74,10.74,0,0,1,16.43,53a15.2,15.2,0,0,1-.37-3.28A9.53,9.53,0,0,1,17.82,44a9.2,9.2,0,0,1,3-2.76,5.91,5.91,0,0,1,2.75-.67c2.47,0,4.94,0,7.4.09a6,6,0,0,1,2.07.76c2.69,1.24,5.38,2.51,8.06,3.77.3.14.62.26.91.41a1.07,1.07,0,0,1,.71,1.19c-.14,1-.4,1.33-1.06,1.5a10.21,10.21,0,0,1-2.75.29c-1.74,0-3.48-.05-5.22,0a4.82,4.82,0,0,1-4.29-3.34c-.27-1.11,0-1-1.34-1-.35,0-.7,0-1,0s-.53.16-.53.54c0,2,0,4,0,6.05,0,.39,0,.79,0,1.18s.11.43.43.43c3.39,0,6.78,0,10.17,0a21.18,21.18,0,0,0,4.57-.32,5,5,0,0,0,3.86-4.26,4.49,4.49,0,0,0-2.79-4.52c-3.3-1.56-6.6-3.13-9.91-4.67a7.17,7.17,0,0,1-3.73-3.72,5.9,5.9,0,0,1,0-4.39,8.57,8.57,0,0,1,2.94-4.23,7.76,7.76,0,0,1,4.43-1.56c1.64-.07,3.27,0,4.91,0a4.17,4.17,0,0,0,3.34-1.47,12,12,0,0,0,3-9.2,14.09,14.09,0,0,0-2.82-7.56,12.36,12.36,0,0,0-3.46-3.18L41,3.1Zm7,48.71a2,2,0,0,0,1.48-1.26,10.38,10.38,0,0,0,1-5.33,7.41,7.41,0,0,0-2.23-5.07A12.21,12.21,0,0,0,46,38.41c-1.9-1-3.85-1.91-5.76-2.9-.91-.47-1.79-1-2.65-1.54-.45-.29-.4-.79-.35-1.25s.45-.41.74-.49a3.51,3.51,0,0,1,.8-.12c1.61,0,3.21,0,4.82,0a4.86,4.86,0,0,1,3.84,1.77,5.94,5.94,0,0,0,1,.73c0-.24,0-.36,0-.47V29.47c0-.57,0-.61-.64-.61-3.52,0-7,0-10.54,0a7.12,7.12,0,0,0-2,.36,2.8,2.8,0,0,0-2,2.45,3.25,3.25,0,0,0,1.29,3.37,23.23,23.23,0,0,0,2.3,1.37c2.25,1.13,4.53,2.18,6.77,3.31a15.44,15.44,0,0,1,3.77,2.42,6.64,6.64,0,0,1,1.65,7.34C48.81,50.26,48.43,51,48.12,51.71Z"/><path class="cls-2" d="M13.61,34.9c.35,0,.57.09.79.09H25a.58.58,0,0,1,.66.44,6.57,6.57,0,0,0,1.51,2.18c.11.12.21.26.29.36v.09l0,0a.28.28,0,0,1-.11.08.55.55,0,0,1-.18,0H8.83l-.06-.13L23.35,18.58c-.34,0-.52-.06-.7-.06H10.83c-.63,0-.63,0-.63-.61V16.14c0-.68,0-.68.66-.68H28.17Z"/><path class="cls-2" d="M36.46,15.46c-.17.24-.27.4-.39.55-2.13,2.85-4.27,5.68-6.4,8.53q-2.18,2.88-4.32,5.78a1,1,0,0,1-1,.49c-.87-.06-1.75,0-2.73,0,.13-.2.19-.33.27-.44q5.52-7.23,11-14.47a.92.92,0,0,1,.87-.43C34.68,15.48,35.52,15.46,36.46,15.46Z"/><path d="M48.12,51.71c.31-.72.69-1.45.94-2.21a6.64,6.64,0,0,0-1.65-7.34,15.44,15.44,0,0,0-3.77-2.42c-2.24-1.13-4.52-2.18-6.77-3.31a23.23,23.23,0,0,1-2.3-1.37,3.25,3.25,0,0,1-1.29-3.37,2.8,2.8,0,0,1,2-2.45,7.12,7.12,0,0,1,2-.36c3.51,0,7,0,10.54,0,.59,0,.64,0,.64.61v4.68c0,.11,0,.23,0,.47a5.94,5.94,0,0,1-1-.73,4.86,4.86,0,0,0-3.84-1.77c-1.61-.06-3.21,0-4.82,0a3.51,3.51,0,0,0-.8.12c-.29.08-.69.08-.74.49s-.1,1,.35,1.25c.86.54,1.74,1.07,2.65,1.54,1.91,1,3.86,1.89,5.76,2.9a12.21,12.21,0,0,1,2.39,1.64,7.41,7.41,0,0,1,2.23,5.07,10.38,10.38,0,0,1-1,5.33A2,2,0,0,1,48.12,51.71Z"/></g></g></svg>